<?xml version="1.0" encoding="UTF-8" standalone="no"?>
<!DOCTYPE svg PUBLIC "-//W3C//DTD SVG 1.1//EN" "http://www.w3.org/Graphics/SVG/1.1/DTD/svg11.dtd">
<!-- Created with Vectornator (http://vectornator.io/) -->
<svg height="100%" stroke-miterlimit="10" style="fill-rule:nonzero;clip-rule:evenodd;stroke-linecap:round;stroke-linejoin:round;" version="1.1" viewBox="0 0 500 500" width="100%" xml:space="preserve" xmlns="http://www.w3.org/2000/svg" xmlns:vectornator="http://vectornator.io" xmlns:xlink="http://www.w3.org/1999/xlink">
<defs/>
<g id="Layer-1" vectornator:layerName="Layer 1">
<path d="M22.0782 250C22.0782 124.122 124.122 22.0782 250 22.0782C375.878 22.0782 477.922 124.122 477.922 250C477.922 375.878 375.878 477.922 250 477.922C124.122 477.922 22.0782 375.878 22.0782 250Z" fill="#1c1c1c" fill-rule="evenodd" opacity="1" stroke="none"/>
</g>
<g id="Layer-1_2" vectornator:layerName="Layer-1">
<path d="M346.798 7.53748C343.121 7.24866 338.161 9.92281 331.762 16.2849C290.812 57.0018 255.452 203.465 247.353 200.341C239.253 197.218 230.655 197.561 221.473 198.366C212.291 199.171 195.943 208.059 186.645 216.626C177.348 225.194 177.293 225.399 171.368 233.678C165.442 241.956 155.749 250.83 146.577 286.081C137.404 321.331 158.873 342.172 182.856 335.944C206.839 329.717 227.453 280.823 233.164 268.627C238.873 256.429 252.956 219.246 252.956 219.246C257.845 221.291 256.854 221.857 258.397 223.197C259.941 224.536 260.684 232.116 262.468 232.71C264.253 233.305 266.775 236.838 268.676 230.493C270.578 224.148 270.112 219.896 268.716 215.941C267.321 211.986 260.574 206.146 260.574 206.146L318.056 66.1083C318.056 66.1083 276.622 207.566 272.668 221.061C268.711 234.555 244.759 330.402 235.22 372.747C225.679 415.093 216.344 484.2 237.517 491.179C258.69 498.159 271.512 475.364 281.052 465.825C290.591 456.284 315.939 426.977 321.523 421.161C327.108 415.343 325.957 411.123 325.957 411.123C325.957 411.124 315.948 416.039 308.503 422.087C301.058 428.137 282.692 445.804 265.008 463.486C247.326 481.17 247.079 473.035 247.311 468.847C247.545 464.66 248.461 447.213 251.021 433.254C253.58 419.293 300.803 258.497 327.328 171.479C349.707 98.0576 366.655 9.097 346.798 7.53748ZM235.3 216.264C238.857 216.208 240.983 216.989 240.983 216.989C240.983 216.99 224.162 257.152 201.439 293.619C178.716 330.086 171.478 318.681 168.345 302.649C165.21 286.616 179.86 264.281 184.871 255.163C189.883 246.046 209.45 227.222 220.989 220.536C226.759 217.194 231.741 216.319 235.3 216.264ZM337.929 298.335C334.371 298.335 329.929 299.62 326.361 304.624C319.222 314.631 327.63 325.848 337.566 323.126C347.504 320.403 348.233 317.64 350.304 311.88C352.376 306.119 347.368 300.688 344.177 299.625C344.177 299.625 341.488 298.335 337.929 298.335Z" fill="#ffa8a8" fill-rule="evenodd" opacity="1" stroke="none"/>
</g>
</svg>
