<?xml version="1.0" encoding="UTF-8" standalone="no"?>
<!DOCTYPE svg PUBLIC "-//W3C//DTD SVG 1.1//EN" "http://www.w3.org/Graphics/SVG/1.1/DTD/svg11.dtd">
<!-- Created with Vectornator (http://vectornator.io/) -->
<svg height="100%" stroke-miterlimit="10" style="fill-rule:nonzero;clip-rule:evenodd;stroke-linecap:round;stroke-linejoin:round;" version="1.1" viewBox="0 0 1175 543" width="100%" xml:space="preserve" xmlns="http://www.w3.org/2000/svg" xmlns:xlink="http://www.w3.org/1999/xlink">
<defs/>
<g id="Layer-1">
<path d="M194.844 71.125C168.981 69.2429 150.769 128.071 160 153.969C169.231 179.866 180.875 182.406 180.875 182.406C180.875 182.406 177.49 186.107 172.875 195.594C168.26 205.081 131.531 254.594 131.531 254.594C131.531 254.594 121.651 236.917 120.625 235.25C119.599 233.583 113.564 222.542 106 200.875C98.4359 179.208 101.025 174.866 101.281 163.969C101.538 153.071 108.179 146.53 112.281 144.094C116.384 141.658 122.663 145.63 126.125 152.938C129.587 160.245 130.618 166.557 132.688 177.812C133.261 180.932 136.219 180.375 136.219 180.375C137.901 179.778 138.522 179.534 139.781 176.094C141.04 172.654 140.605 165.367 138.25 156.844C135.895 148.321 132.227 133.095 112.375 133.031C92.5232 132.967 78.2081 157.019 73.4688 184.125C68.7294 211.231 76.7161 225.739 84.4688 236.812C92.2214 247.886 109.844 284 109.844 284C109.844 284 88.6963 315.901 82.3125 325.062C75.9287 334.224 40.1508 387.395 36.4375 439.344C32.7241 491.292 56.1075 511.205 74.5 516.375C92.8925 521.545 114.847 519.97 143.406 484.531C171.965 449.093 169.497 395.776 167.438 372.5C165.378 349.224 147.385 291.602 145.594 288C143.803 284.398 138.875 269.875 138.875 269.875C142.065 267.702 154.75 249.688 154.75 249.688C202.63 181.421 191.214 183.701 194.219 184.656C197.223 185.611 208.906 183.531 208.906 183.531C208.906 183.531 195.987 211.145 191.812 240.156C187.638 269.168 206.923 282.657 215.469 284.5C224.014 286.343 242.649 269.609 248.094 263.219C253.538 256.829 273.156 234.25 273.156 234.25C273.156 234.25 272.833 234.623 276.219 245.188C279.604 255.752 287.909 259.001 296.719 260.094C305.529 261.187 319.06 247.065 325.031 237.688C331.002 228.31 342.931 209.558 350.75 195.156C358.569 180.755 362.312 176.906 362.312 176.906C362.312 176.906 357.562 193.931 351.812 213.469C346.063 233.006 345.538 241.071 341.625 271.188C337.712 301.304 350.407 308.409 359.562 304.219C368.718 300.029 417.469 250.656 417.469 250.656C417.469 250.656 417.77 251.517 421.344 253.812C424.918 256.108 435.156 262.865 452.344 260.219C469.531 257.572 494.438 230.531 494.438 230.531C494.438 230.531 493.349 240.781 493.5 254.5C493.651 268.219 495.885 297.432 523.312 288.594C550.739 279.755 577.557 249.068 582.5 242.656C587.443 236.245 590.049 232.371 588.875 231.031C587.701 229.692 584.562 232.344 584.562 232.344C584.562 232.344 577.393 239.177 546.406 259.438C515.419 279.698 511.248 278.219 511.844 256.469C512.44 234.718 529.125 193.906 529.125 193.906C529.125 193.906 537.767 188.243 554.75 177.219C571.733 166.194 578.882 142.641 572.625 134C566.368 125.359 552.98 122.374 528.25 148.594C503.52 174.814 496.875 214.5 496.875 214.5C496.875 214.5 465.79 240.416 459.156 244.562C452.522 248.709 424.312 256.386 430.531 231.094C436.751 205.801 446.505 187.748 451.688 180.906C456.87 174.065 460.197 171.991 464.344 170.125C468.49 168.259 472.222 171.175 472.844 177.188C473.466 183.2 473.468 193.144 479.688 190.656C485.907 188.169 484.031 182.768 484.031 178C484.031 173.232 479.257 163.293 474.281 157.281C469.306 151.269 457.285 151.072 451.688 152.938C446.09 154.803 423.485 167.243 414.156 203.938C406.099 235.629 411.69 243.71 413.438 245.438C411.623 245.837 405.878 249.48 388.062 265.906C358.831 292.857 359.511 289.49 357.688 289.125C355.864 288.76 364.489 248.866 365.219 244.125C365.948 239.384 377.024 199.761 380.062 182.5C383.101 165.239 380.053 161.834 374.219 158.188C368.384 154.541 360.626 160.009 356.25 164.75C352.025 169.327 346.428 176.579 346.031 177.094C346.188 176.641 346.109 175.326 344.438 170.844C341.763 163.672 335.696 159.771 329.375 158.312C323.054 156.854 326.066 156.471 310.75 160.969C304.479 162.81 295.142 172.298 288.938 182.375C279.989 196.909 275.156 213.094 275.156 213.094C275.156 213.094 267.867 219.386 249.312 240.75C230.758 262.114 236.18 254.599 226.781 263.344C217.383 272.088 219.847 260.56 219.844 252.75C219.841 244.94 225.26 222.026 230.031 209.469C234.802 196.911 235.78 185.333 235.656 176.562C235.533 167.792 229.069 162.566 223.812 163.469C218.556 164.372 203.062 167.719 203.062 167.719C203.062 167.719 206.221 165.61 214.438 131.875C222.654 98.1397 220.707 73.0071 194.844 71.125ZM198.75 82.5625C199.685 82.5052 200.481 82.6229 201.125 82.875C206.279 84.8918 207.975 96.5247 206.406 116.469C204.838 136.413 189.938 165 189.938 165C184.559 159.846 176.158 158.724 178.062 123.094C179.729 91.9171 192.204 82.9639 198.75 82.5625ZM563.219 139.719C564.58 140.009 563.79 143.24 562.938 146.906C561.801 151.795 558.017 160.34 553.469 165.375C548.921 170.41 534.969 179.594 534.969 179.594C542.126 152.723 557.003 143.075 561.062 140.5C562.077 139.856 562.765 139.622 563.219 139.719ZM329.312 172.906C331.594 172.486 333.484 173.289 334.781 175.156C338.239 180.136 337.125 188.281 337.125 188.281C337.125 188.281 325.501 212.626 308.625 232.406C291.749 252.187 295.211 233.922 298.531 220.781C301.851 207.64 307.107 198.088 315.406 185.5C320.593 177.633 325.51 173.607 329.312 172.906ZM118.406 300.312C118.406 300.312 136.11 339.682 138.094 348.469C140.078 357.256 157.241 419.478 142.219 454.625C127.196 489.772 107.911 500.68 101.25 503.656C94.5891 506.632 69.9222 517.276 55.75 487.656C41.5778 458.036 39.1768 425.723 66.8125 376.688C94.4482 327.652 118.406 300.312 118.406 300.312Z" fill="#31313" fill-rule="evenodd" opacity="1" stroke="none"/>
<path d="M828.438 17.9375C825.587 17.7136 821.742 19.7867 816.781 24.7188C785.035 56.2841 757.623 169.828 751.344 167.406C745.065 164.985 738.399 165.251 731.281 165.875C724.163 166.499 711.489 173.389 704.281 180.031C697.074 186.673 697.031 186.832 692.438 193.25C687.844 199.668 680.329 206.547 673.219 233.875C666.108 261.202 682.751 277.359 701.344 272.531C719.936 267.703 735.917 229.799 740.344 220.344C744.77 210.888 755.688 182.062 755.688 182.062C759.478 183.647 758.71 184.086 759.906 185.125C761.103 186.163 761.679 192.039 763.062 192.5C764.446 192.961 766.401 195.7 767.875 190.781C769.349 185.862 768.988 182.566 767.906 179.5C766.824 176.434 761.594 171.906 761.594 171.906L806.156 63.3438C806.156 63.3438 774.035 173.007 770.969 183.469C767.902 193.93 749.333 268.234 741.938 301.062C734.542 333.89 727.305 387.464 743.719 392.875C760.133 398.286 770.073 380.614 777.469 373.219C784.864 365.823 804.515 343.103 808.844 338.594C813.173 334.084 812.281 330.812 812.281 330.812C812.281 330.813 804.522 334.623 798.75 339.312C792.978 344.002 778.74 357.698 765.031 371.406C751.323 385.115 751.132 378.809 751.312 375.562C751.493 372.316 752.203 358.791 754.188 347.969C756.172 337.146 792.781 212.491 813.344 145.031C830.693 88.1121 843.832 19.1465 828.438 17.9375ZM742 179.75C744.758 179.707 746.406 180.312 746.406 180.312C746.406 180.313 733.366 211.448 715.75 239.719C698.134 267.989 692.523 259.148 690.094 246.719C687.664 234.29 699.021 216.975 702.906 209.906C706.791 202.838 721.96 188.245 730.906 183.062C735.379 180.471 739.241 179.793 742 179.75ZM821.562 243.375C818.804 243.375 815.36 244.371 812.594 248.25C807.06 256.008 813.578 264.704 821.281 262.594C828.985 260.483 829.55 258.341 831.156 253.875C832.762 249.409 828.88 245.199 826.406 244.375C826.406 244.375 824.321 243.375 821.562 243.375Z" fill="#31313" fill-rule="evenodd" opacity="1" stroke="none"/>
<path d="M1075.72 93.9688C1068.26 94.7588 1058.94 101.643 1050.88 116.406C1036.13 143.403 1044.56 168.531 1044.56 168.531C1044.56 168.531 1037.98 176.977 1032.91 183.938C1027.83 190.898 989.646 231.188 986.594 229.969C983.541 228.749 986.371 201.61 987.75 194.531C989.129 187.453 996.255 152.944 996.531 143.875C996.808 134.806 991.636 130.278 986.969 131.219C982.301 132.16 979.207 140.892 978.094 145.812C976.981 150.733 963.8 171.358 962.25 175.719C960.7 180.079 928.445 243.519 928 251.219C927.556 258.919 929.674 259.377 932.969 255.906C936.263 252.435 964.938 190.875 964.938 190.875C965.988 196.869 951.341 214.074 968.25 239.438C985.159 264.801 1002.09 233.71 1007.81 227.438C1013.54 221.165 1049.26 175.065 1048.44 179.156C1047.62 183.247 1051.97 191.989 1057.16 208.625C1062.34 225.261 1058.25 253.062 1058.25 253.062C1058.25 253.063 1045.8 255.173 1030.53 261.719C1015.26 268.264 991.992 290.426 988.719 316.062C985.446 341.699 1006.72 346.355 1025.81 341.719C1044.9 337.082 1058.8 324.264 1070.53 305.719C1082.26 287.173 1085.81 260.438 1085.81 260.438C1085.81 260.438 1127.79 264.804 1131.06 261.531C1134.34 258.259 1143.63 262.614 1148.81 255.25C1153.99 247.886 1146.33 250.892 1141.97 251.438C1137.61 251.983 1133 252.801 1122.91 251.438C1112.82 250.074 1085.12 248.906 1085.12 248.906C1085.12 248.906 1084.71 235.605 1083.88 222.938C1083.04 210.27 1079.33 200.305 1074.97 184.938C1070.61 169.57 1064.78 157.531 1064.78 157.531C1064.78 157.531 1077.67 142.365 1081.41 132.812C1085.14 123.26 1092.81 118.275 1088.66 103.531C1087.1 98.0022 1083.49 94.6267 1078.78 94C1077.8 93.8694 1076.78 93.8559 1075.72 93.9688ZM1078.78 105.219C1084.55 105.087 1080.21 116.122 1079.25 119.25C1078.29 122.378 1074.2 130.594 1070.81 135.344C1067.43 140.093 1062.53 146.406 1062.53 146.406C1056.85 120.681 1073.01 105.351 1078.78 105.219ZM1057.5 263.781C1057.5 263.781 1055.8 280.544 1051.62 289.844C1047.45 299.143 1036.46 319.947 1018.22 326.406C999.973 332.866 991.963 321.365 1000.38 301.438C1008.79 281.51 1031.06 267.63 1057.5 263.781ZM993.818 86.9709C992.521 86.0605 983.997 84.6422 981.465 94.5646C978.934 104.487 990.634 103.181 993.571 100.446C996.507 97.7116 1001.46 92.333 993.818 86.9709Z" fill="#31313" fill-rule="evenodd" opacity="1" stroke="none"/>
</g>
</svg>
